<svg width="32" height="32" viewBox="0 0 32 32" fill="none" xmlns="http://www.w3.org/2000/svg">
<path d="M29 27.586L21.448 20.034C23.2628 17.8553 24.1678 15.0608 23.9747 12.2319C23.7816 9.40297 22.5053 6.75739 20.4112 4.84552C18.3172 2.93364 15.5667 1.90267 12.732 1.96709C9.89717 2.0315 7.19635 3.18633 5.19134 5.19134C3.18633 7.19635 2.0315 9.89717 1.96709 12.732C1.90268 15.5667 2.93364 18.3172 4.84552 20.4112C6.75739 22.5053 9.40297 23.7816 12.2319 23.9747C15.0608 24.1678 17.8553 23.2628 20.034 21.448L27.586 29L29 27.586ZM4 13C4 11.22 4.52784 9.47991 5.51677 7.99987C6.50571 6.51983 7.91132 5.36627 9.55585 4.68508C11.2004 4.0039 13.01 3.82567 14.7558 4.17293C16.5016 4.5202 18.1053 5.37737 19.364 6.63604C20.6226 7.89471 21.4798 9.49836 21.8271 11.2442C22.1743 12.99 21.9961 14.7996 21.3149 16.4442C20.6337 18.0887 19.4802 19.4943 18.0001 20.4832C16.5201 21.4722 14.78 22 13 22C10.6139 21.9974 8.32622 21.0483 6.63896 19.361C4.95171 17.6738 4.00265 15.3861 4 13Z" fill="currentColor"/>
</svg>
